# Blender 4.3.0
# www.blender.org
mtllib Flixel3D.mtl
o Center
v 0.375000 -0.375000 0.000000
v 0.375000 0.000000 0.375000
v -0.375000 -0.375000 0.000000
v -0.375000 0.375000 0.000000
v -0.375000 0.000000 0.375000
v 0.000000 0.375000 0.375000
v 0.000000 -0.375000 -0.375000
v 0.375000 0.000000 -0.375000
v -0.375000 0.000000 -0.375000
v 0.375000 0.375000 0.000000
v 0.000000 0.375000 -0.375000
v 0.000000 -0.375000 0.375000
vn -0.0000 -0.0000 1.0000
vn 1.0000 -0.0000 -0.0000
vn -0.0000 -0.0000 -1.0000
vn -1.0000 -0.0000 -0.0000
vn -0.0000 1.0000 -0.0000
vn -0.0000 -1.0000 -0.0000
vn 0.5774 0.5774 0.5774
vn -0.5774 0.5774 0.5774
vn -0.5774 -0.5774 0.5774
vn 0.5774 -0.5774 0.5774
vn 0.5774 -0.5774 -0.5774
vn -0.5774 -0.5774 -0.5774
vn -0.5774 0.5774 -0.5774
vn 0.5774 0.5774 -0.5774
vt 0.000000 0.000000
s 0
f 12/1/1 2/1/1 6/1/1
f 10/1/2 2/1/2 1/1/2
f 11/1/3 8/1/3 7/1/3
f 3/1/4 5/1/4 4/1/4
f 11/1/5 6/1/5 10/1/5
f 12/1/6 3/1/6 7/1/6
f 11/1/3 7/1/3 9/1/3
f 3/1/4 4/1/4 9/1/4
f 12/1/1 6/1/1 5/1/1
f 10/1/2 1/1/2 8/1/2
f 11/1/5 4/1/5 6/1/5
f 12/1/6 7/1/6 1/1/6
f 6/1/7 2/1/7 10/1/7
f 4/1/8 5/1/8 6/1/8
f 12/1/9 5/1/9 3/1/9
f 12/1/10 1/1/10 2/1/10
f 1/1/11 7/1/11 8/1/11
f 3/1/12 9/1/12 7/1/12
f 11/1/13 9/1/13 4/1/13
f 10/1/14 8/1/14 11/1/14
o X+TR
v 0.500000 0.500000 -0.500000
v 0.500000 0.500000 -0.250000
v 0.250000 0.500000 -0.500000
v 0.500000 0.250000 -0.500000
v 0.375000 0.000000 -0.375000
v 0.375000 0.375000 0.000000
v 0.000000 0.375000 -0.375000
vn -0.3015 0.9045 0.3015
vn 0.9045 -0.3015 0.3015
vn -0.0000 -0.0000 -1.0000
vn -0.3015 -0.3015 -0.9045
vn 1.0000 -0.0000 -0.0000
vn -0.0000 1.0000 -0.0000
vn -0.5774 -0.5774 0.5774
vt 0.000000 0.000000
s 0
f 19/2/15 18/2/15 14/2/15
f 17/2/16 14/2/16 18/2/16
f 16/2/17 15/2/17 13/2/17
f 15/2/18 17/2/18 19/2/18
f 17/2/18 15/2/18 16/2/18
f 14/2/19 16/2/19 13/2/19
f 16/2/16 14/2/16 17/2/16
f 14/2/20 13/2/20 15/2/20
f 15/2/15 19/2/15 14/2/15
f 18/2/21 19/2/21 17/2/21
o X-TL
v -0.500000 0.500000 -0.500000
v -0.500000 0.500000 -0.250000
v -0.250000 0.500000 -0.500000
v -0.500000 0.250000 -0.500000
v -0.375000 0.375000 0.000000
v -0.375000 0.000000 -0.375000
v 0.000000 0.375000 -0.375000
vn 0.3015 0.9045 0.3015
vn -0.9045 -0.3015 0.3015
vn -0.0000 -0.0000 -1.0000
vn -1.0000 -0.0000 -0.0000
vn 0.3015 -0.3015 -0.9045
vn -0.0000 1.0000 -0.0000
vn 0.5774 -0.5774 0.5774
vt 0.000000 0.000000
s 0
f 24/3/22 26/3/22 22/3/22
f 24/3/23 23/3/23 25/3/23
f 23/3/24 20/3/24 22/3/24
f 20/3/25 23/3/25 21/3/25
f 21/3/23 23/3/23 24/3/23
f 22/3/26 26/3/26 25/3/26
f 25/3/26 23/3/26 22/3/26
f 22/3/27 20/3/27 21/3/27
f 21/3/22 24/3/22 22/3/22
f 26/3/28 24/3/28 25/3/28
o X-TR
v -0.500000 0.500000 0.500000
v -0.500000 0.500000 0.250000
v -0.250000 0.500000 0.500000
v -0.500000 0.250000 0.500000
v -0.375000 0.375000 0.000000
v -0.375000 0.000000 0.375000
v 0.000000 0.375000 0.375000
vn 0.3015 -0.3015 0.9045
vn -0.0000 1.0000 -0.0000
vn -0.9045 -0.3015 -0.3015
vn -0.0000 -0.0000 1.0000
vn -1.0000 -0.0000 -0.0000
vn 0.3015 0.9045 -0.3015
vn 0.5774 -0.5774 -0.5774
vt 0.000000 0.000000
s 0
f 29/4/29 32/4/29 33/4/29
f 29/4/30 28/4/30 27/4/30
f 32/4/31 28/4/31 31/4/31
f 32/4/29 29/4/29 30/4/29
f 30/4/32 29/4/32 27/4/32
f 28/4/33 30/4/33 27/4/33
f 30/4/31 28/4/31 32/4/31
f 28/4/34 33/4/34 31/4/34
f 33/4/34 28/4/34 29/4/34
f 31/4/35 33/4/35 32/4/35
o X+TL
v 0.500000 0.500000 0.500000
v 0.500000 0.500000 0.250000
v 0.250000 0.500000 0.500000
v 0.500000 0.250000 0.500000
v 0.375000 0.000000 0.375000
v 0.000000 0.375000 0.375000
v 0.375000 0.375000 0.000000
vn -0.3015 -0.3015 0.9045
vn -0.0000 1.0000 -0.0000
vn 0.9045 -0.3015 -0.3015
vn -0.0000 -0.0000 1.0000
vn 1.0000 -0.0000 -0.0000
vn -0.3015 0.9045 -0.3015
vn -0.5774 -0.5774 -0.5774
vt 0.000000 0.000000
vt 0.625000 0.750000
vt 0.625000 0.687483
s 0
f 38/5/36 37/5/36 36/5/36
f 36/5/37 34/6/37 35/7/37
f 35/5/38 37/5/38 38/5/38
f 39/5/36 38/5/36 36/5/36
f 36/5/39 37/5/39 34/5/39
f 37/5/40 35/5/40 34/5/40
f 35/5/38 38/5/38 40/5/38
f 35/7/41 40/5/41 39/5/41
f 39/5/41 36/5/41 35/7/41
f 39/5/42 40/5/42 38/5/42
o X-BR
v -0.500000 -0.500000 0.500000
v -0.500000 -0.500000 0.250000
v -0.250000 -0.500000 0.500000
v -0.500000 -0.250000 0.500000
v -0.375000 -0.375000 0.000000
v -0.375000 0.000000 0.375000
v 0.000000 -0.375000 0.375000
vn 0.3015 0.3015 0.9045
vn -0.9045 0.3015 -0.3015
vn -0.0000 -1.0000 -0.0000
vn -0.0000 -0.0000 1.0000
vn -1.0000 -0.0000 -0.0000
vn 0.3015 -0.9045 -0.3015
vn 0.5774 0.5774 -0.5774
vt 0.000000 0.000000
s 0
f 44/8/43 47/8/43 46/8/43
f 42/8/44 44/8/44 46/8/44
f 43/8/45 41/8/45 42/8/45
f 47/8/43 44/8/43 43/8/43
f 43/8/46 44/8/46 41/8/46
f 44/8/47 42/8/47 41/8/47
f 42/8/44 46/8/44 45/8/44
f 42/8/48 45/8/48 47/8/48
f 47/8/48 43/8/48 42/8/48
f 47/8/49 45/8/49 46/8/49
o X+BL
v 0.500000 -0.500000 0.500000
v 0.500000 -0.500000 0.250000
v 0.250000 -0.500000 0.500000
v 0.500000 -0.250000 0.500000
v 0.375000 -0.375000 0.000000
v 0.375000 0.000000 0.375000
v 0.000000 -0.375000 0.375000
vn -0.3015 0.3015 0.9045
vn 0.9045 0.3015 -0.3015
vn -0.0000 -1.0000 -0.0000
vn 1.0000 -0.0000 -0.0000
vn -0.0000 -0.0000 1.0000
vn -0.3015 -0.9045 -0.3015
vn -0.5774 0.5774 -0.5774
vt 0.000000 0.000000
s 0
f 50/9/50 53/9/50 54/9/50
f 53/9/51 49/9/51 52/9/51
f 49/9/52 48/9/52 50/9/52
f 49/9/53 51/9/53 48/9/53
f 51/9/51 49/9/51 53/9/51
f 53/9/50 50/9/50 51/9/50
f 51/9/54 50/9/54 48/9/54
f 50/9/55 54/9/55 52/9/55
f 52/9/55 49/9/55 50/9/55
f 54/9/56 53/9/56 52/9/56
o X+BR
v 0.500000 -0.500000 -0.500000
v 0.500000 -0.500000 -0.250000
v 0.250000 -0.500000 -0.500000
v 0.500000 -0.250000 -0.500000
v 0.375000 -0.375000 0.000000
v 0.000000 -0.375000 -0.375000
v 0.375000 0.000000 -0.375000
vn 0.9045 0.3015 0.3015
vn -0.3015 0.3015 -0.9045
vn -0.3015 -0.9045 0.3015
vn 1.0000 -0.0000 -0.0000
vn -0.0000 -0.0000 -1.0000
vn -0.0000 -1.0000 -0.0000
vn -0.5774 0.5774 0.5774
vt 0.000000 0.000000
s 0
f 56/10/57 58/10/57 61/10/57
f 58/10/58 60/10/58 61/10/58
f 56/10/59 60/10/59 57/10/59
f 58/10/60 56/10/60 55/10/60
f 56/10/57 61/10/57 59/10/57
f 60/10/58 58/10/58 57/10/58
f 57/10/61 58/10/61 55/10/61
f 60/10/59 56/10/59 59/10/59
f 56/10/62 57/10/62 55/10/62
f 59/10/63 61/10/63 60/10/63
o X-BL
v -0.500000 -0.500000 -0.500000
v -0.500000 -0.500000 -0.250000
v -0.250000 -0.500000 -0.500000
v -0.500000 -0.250000 -0.500000
v -0.375000 -0.375000 0.000000
v 0.000000 -0.375000 -0.375000
v -0.375000 0.000000 -0.375000
vn -0.9045 0.3015 0.3015
vn -0.0000 -0.0000 -1.0000
vn -0.0000 -1.0000 -0.0000
vn -1.0000 -0.0000 -0.0000
vn 0.3015 0.3015 -0.9045
vn 0.3015 -0.9045 0.3015
vn 0.5774 0.5774 0.5774
vt 0.000000 0.000000
s 0
f 68/11/64 63/11/64 66/11/64
f 65/11/65 64/11/65 62/11/65
f 64/11/66 63/11/66 62/11/66
f 63/11/67 65/11/67 62/11/67
f 65/11/64 63/11/64 68/11/64
f 64/11/68 68/11/68 67/11/68
f 68/11/68 64/11/68 65/11/68
f 63/11/69 67/11/69 66/11/69
f 67/11/69 63/11/69 64/11/69
f 66/11/70 67/11/70 68/11/70
